<?xml version="1.0" encoding="UTF-8" standalone="no"?>
<svg
   xmlns:dc="http://purl.org/dc/elements/1.1/"
   xmlns:cc="http://creativecommons.org/ns#"
   xmlns:rdf="http://www.w3.org/1999/02/22-rdf-syntax-ns#"
   xmlns:svg="http://www.w3.org/2000/svg"
   xmlns="http://www.w3.org/2000/svg"
   xmlns:sodipodi="http://sodipodi.sourceforge.net/DTD/sodipodi-0.dtd"
   xmlns:inkscape="http://www.inkscape.org/namespaces/inkscape"
   version="1.0"
   width="40"
   height="40"
   viewBox="0 0 29.999999 29.999999"
   preserveAspectRatio="xMidYMid meet"
   id="svg14"
   sodipodi:docname="favicon.svg"
   inkscape:version="0.92.4 (5da689c313, 2019-01-14)">
  <metadata
     id="metadata20">
    <rdf:RDF>
      <cc:Work
         rdf:about="">
        <dc:format>image/svg+xml</dc:format>
        <dc:type
           rdf:resource="http://purl.org/dc/dcmitype/StillImage" />
        <dc:title></dc:title>
      </cc:Work>
    </rdf:RDF>
  </metadata>
  <defs
     id="defs18" />
  <sodipodi:namedview
     pagecolor="#ffffff"
     bordercolor="#666666"
     borderopacity="1"
     objecttolerance="10"
     gridtolerance="10"
     guidetolerance="10"
     inkscape:pageopacity="0"
     inkscape:pageshadow="2"
     inkscape:window-width="1920"
     inkscape:window-height="1027"
     id="namedview16"
     showgrid="false"
     units="px"
     inkscape:zoom="5.8032787"
     inkscape:cx="-29.424888"
     inkscape:cy="-10.292161"
     inkscape:window-x="-8"
     inkscape:window-y="-8"
     inkscape:window-maximized="1"
     inkscape:current-layer="svg14" />
  <g
     transform="matrix(0.01122293,0,0,-0.01122293,1.3082933,28.691781)"
     id="g12"
     style="fill:#000000;stroke:none;stroke-width:8.91033363">
    <path
       d="M 1040,2425 C 382,2329 -80,1710 14,1050 108,384 725,-80 1390,14 c 666,94 1130,711 1036,1376 -95,669 -716,1133 -1386,1035 z m 262,-189 c 22,-16 38,-59 38,-100 0,-28 -4,-34 -27,-39 -16,-4 -41,-18 -58,-32 -19,-17 -23,-24 -12,-21 62,20 92,18 115,-7 22,-23 23,-27 9,-53 -44,-84 -51,-224 -17,-301 27,-61 45,-80 102,-109 60,-31 81,-31 40,-1 -133,99 -149,282 -36,407 72,80 177,108 285,77 201,-59 260,-328 102,-467 -43,-37 -45,-42 -47,-97 -1,-42 5,-69 21,-102 29,-56 29,-71 1,-71 -13,-1 -36,-7 -53,-15 l -30,-13 48,-1 c 77,-1 111,-22 168,-100 36,-50 66,-79 101,-98 49,-27 63,-49 56,-94 -2,-13 -15,-30 -30,-38 -24,-14 -32,-13 -82,2 -111,35 -275,168 -343,279 l -36,59 -29,-45 c -41,-66 -157,-185 -226,-231 -50,-33 -64,-49 -83,-95 C 1164,654 839,280 713,280 c -48,0 -77,32 -69,78 5,36 52,114 114,190 39,48 48,51 55,20 4,-13 12,-31 19,-41 11,-14 13,-5 13,65 1,53 7,103 19,138 32,96 110,243 149,281 53,52 70,100 62,168 -9,71 -38,147 -70,186 l -25,30 15,-37 c 22,-54 30,-174 15,-228 -15,-57 -36,-80 -71,-80 -27,0 -150,-25 -179,-37 -11,-4 -9,-7 9,-12 40,-11 36,-30 -18,-81 -55,-51 -141,-100 -176,-100 -65,0 -80,73 -27,139 27,34 30,43 22,70 -12,41 4,93 48,160 47,71 125,131 246,191 98,49 99,50 165,142 36,51 101,129 143,173 l 78,80 -23,55 c -37,85 -58,182 -60,281 -2,88 -1,91 26,115 31,27 81,31 109,10 z"
       id="path2"
       inkscape:connector-curvature="0"
       style="stroke-width:8.91033363" />
    <path
       d="m 1512,1950 c -92,-67 -125,-171 -83,-261 46,-97 135,-156 222,-146 111,13 209,107 209,200 0,61 -95,173 -187,221 -52,26 -113,21 -161,-14 z m 258,-181 c 29,-52 -25,-98 -75,-65 -33,22 -32,59 1,85 29,23 55,16 74,-20 z"
       id="path4"
       inkscape:connector-curvature="0"
       style="stroke-width:8.91033363" />
    <path
       d="m 1246,1584 c -20,-19 -20,-29 0,-48 19,-19 26,-20 42,-4 18,18 14,46 -7,58 -15,7 -23,6 -35,-6 z"
       id="path6"
       inkscape:connector-curvature="0"
       style="stroke-width:8.91033363" />
    <path
       d="m 1172,1511 c -21,-13 -11,-55 14,-59 30,-4 48,21 34,47 -11,22 -27,26 -48,12 z"
       id="path8"
       inkscape:connector-curvature="0"
       style="stroke-width:8.91033363" />
    <path
       d="m 1284,1466 c -49,-49 -46,-82 11,-135 24,-22 52,-41 61,-41 9,0 36,20 60,44 24,24 44,51 44,60 0,9 -19,37 -41,61 -53,57 -86,60 -135,11 z"
       id="path10"
       inkscape:connector-curvature="0"
       style="stroke-width:8.91033363" />
  </g>
</svg>
