<?xml version="1.0" encoding="UTF-8" standalone="no"?>
<svg
   xmlns:dc="http://purl.org/dc/elements/1.1/"
   xmlns:cc="http://creativecommons.org/ns#"
   xmlns:rdf="http://www.w3.org/1999/02/22-rdf-syntax-ns#"
   xmlns:svg="http://www.w3.org/2000/svg"
   xmlns="http://www.w3.org/2000/svg"
   xmlns:sodipodi="http://sodipodi.sourceforge.net/DTD/sodipodi-0.dtd"
   xmlns:inkscape="http://www.inkscape.org/namespaces/inkscape"
   id="grav-logo"
   width="13"
   height="13"
   viewBox="0 0 67.668 76.830002"
   version="1.1"
   xml:space="preserve"
   style="clip-rule:evenodd;fill-rule:evenodd;stroke-linejoin:round;stroke-miterlimit:1.41421"
   sodipodi:docname="gravFileIcon.svg"
   inkscape:version="1.0.1 (3bc2e813f5, 2020-09-07)"
   inkscape:export-filename="D:\Projekte\Intellij-Grav-Plugin\GravSupportPlugin\src\main\resources\icons\gravFileIcon.png"
   inkscape:export-xdpi="96"
   inkscape:export-ydpi="96"><metadata
     id="metadata25"><rdf:RDF><cc:Work
         rdf:about=""><dc:format>image/svg+xml</dc:format><dc:type
           rdf:resource="http://purl.org/dc/dcmitype/StillImage" /><dc:title /></cc:Work></rdf:RDF></metadata><defs
     id="defs23" /><sodipodi:namedview
     pagecolor="#ffffff"
     bordercolor="#666666"
     borderopacity="1"
     objecttolerance="10"
     gridtolerance="10"
     guidetolerance="10"
     inkscape:pageopacity="0"
     inkscape:pageshadow="2"
     inkscape:window-width="1920"
     inkscape:window-height="1027"
     id="namedview21"
     showgrid="false"
     fit-margin-top="0"
     fit-margin-left="0"
     fit-margin-right="0"
     fit-margin-bottom="0"
     inkscape:zoom="12.929952"
     inkscape:cx="7.161831"
     inkscape:cy="20.357631"
     inkscape:window-x="-8"
     inkscape:window-y="1072"
     inkscape:window-maximized="1"
     inkscape:current-layer="grav-logo"
     inkscape:pagecheckerboard="true"
     inkscape:document-rotation="0" /><path
     d="m 62.050032,40.408451 -7.117558,-8.92e-4 c -1.081904,8.92e-4 -1.959558,0.88033 -1.959558,1.965802 v 13.670527 l -0.140924,0.117734 c -4.188477,3.533805 -9.484725,5.476416 -14.912086,5.476416 -12.804468,0 -23.220363,-10.417678 -23.220363,-23.223038 0,-12.806252 10.415895,-23.221255 23.220363,-23.221255 4.978723,0 9.738924,1.576031 13.768639,4.56041 0.782218,0.578859 1.866798,0.499478 2.556255,-0.188196 l 5.075051,-5.07505 C 59.715865,14.096678 59.9219,13.549928 59.889791,12.991584 59.859465,12.432347 59.590104,11.915923 59.151277,11.56718 53.121868,6.7837891 45.581538,4.1517199 37.919014,4.1517199 19.028053,4.1517199 3.6566261,19.522255 3.6566261,38.415 c 0,18.893637 15.3714269,34.26328 34.2623879,34.26328 9.754979,0 19.084509,-4.196505 25.59645,-11.518313 0.319309,-0.359446 0.49591,-0.821463 0.49591,-1.30221 V 42.373361 c 0,-1.085472 -0.878546,-1.96491 -1.962234,-1.96491"
     style="fill:#000000;fill-rule:nonzero;stroke-width:0.999999"
     id="path2" /></svg>
