<?xml version="1.0" encoding="UTF-8" standalone="no"?>
<svg
   xmlns:dc="http://purl.org/dc/elements/1.1/"
   xmlns:cc="http://creativecommons.org/ns#"
   xmlns:rdf="http://www.w3.org/1999/02/22-rdf-syntax-ns#"
   xmlns:svg="http://www.w3.org/2000/svg"
   xmlns="http://www.w3.org/2000/svg"
   xmlns:sodipodi="http://sodipodi.sourceforge.net/DTD/sodipodi-0.dtd"
   xmlns:inkscape="http://www.inkscape.org/namespaces/inkscape"
   id="grav-logo"
   width="13"
   height="13"
   viewBox="0 0 67.668 76.830002"
   version="1.1"
   xml:space="preserve"
   style="clip-rule:evenodd;fill-rule:evenodd;stroke-linejoin:round;stroke-miterlimit:1.41421"
   sodipodi:docname="gravFileIcon_dark.svg"
   inkscape:version="1.0.1 (3bc2e813f5, 2020-09-07)"
   inkscape:export-filename="D:\Projekte\Intellij-Grav-Plugin\GravSupportPlugin\src\main\resources\icons\gravFileIcon_dark.png"
   inkscape:export-xdpi="96"
   inkscape:export-ydpi="96"><metadata
     id="metadata25"><rdf:RDF><cc:Work
         rdf:about=""><dc:format>image/svg+xml</dc:format><dc:type
           rdf:resource="http://purl.org/dc/dcmitype/StillImage" /><dc:title /></cc:Work></rdf:RDF></metadata><defs
     id="defs23" /><sodipodi:namedview
     pagecolor="#ffffff"
     bordercolor="#666666"
     borderopacity="1"
     objecttolerance="10"
     gridtolerance="10"
     guidetolerance="10"
     inkscape:pageopacity="0"
     inkscape:pageshadow="2"
     inkscape:window-width="1920"
     inkscape:window-height="1027"
     id="namedview21"
     showgrid="false"
     fit-margin-top="0"
     fit-margin-left="0"
     fit-margin-right="0"
     fit-margin-bottom="0"
     inkscape:zoom="9.142857"
     inkscape:cx="-7.7758676"
     inkscape:cy="28.862339"
     inkscape:window-x="-8"
     inkscape:window-y="1072"
     inkscape:window-maximized="1"
     inkscape:current-layer="grav-logo"
     inkscape:pagecheckerboard="true"
     inkscape:document-rotation="0" /><path
     d="m 61.476602,40.367939 -6.972909,-8.74e-4 c -1.059917,8.74e-4 -1.919734,0.862439 -1.919734,1.925851 v 13.392703 l -0.13806,0.115341 c -4.103356,3.461988 -9.291969,5.36512 -14.60903,5.36512 -12.544245,0 -22.748459,-10.205961 -22.748459,-22.75108 0,-12.545993 10.204214,-22.749333 22.748459,-22.749333 4.877541,0 9.541001,1.544001 13.488821,4.46773 0.766321,0.567095 1.828859,0.489327 2.504305,-0.184372 l 4.971911,-4.971911 C 59.189872,14.590896 59.39172,14.055257 59.360263,13.50826 59.330554,12.960388 59.066667,12.454459 58.636758,12.112804 52.729883,7.4266252 45.342794,4.8480471 37.835995,4.8480471 19.328952,4.8480471 4.269916,19.906209 4.269916,38.415 c 0,18.509664 15.059036,33.566953 33.566079,33.566953 9.55673,0 18.696657,-4.11122 25.076257,-11.284228 0.31282,-0.352141 0.485832,-0.804768 0.485832,-1.275746 V 42.292916 c 0,-1.063412 -0.860691,-1.924977 -1.922356,-1.924977"
     style="fill:#fafafa;fill-opacity:1;fill-rule:nonzero;stroke-width:1"
     id="path2" /></svg>
