<?xml version="1.0" encoding="UTF-8" standalone="no"?>
<svg
   xmlns:dc="http://purl.org/dc/elements/1.1/"
   xmlns:cc="http://creativecommons.org/ns#"
   xmlns:rdf="http://www.w3.org/1999/02/22-rdf-syntax-ns#"
   xmlns:svg="http://www.w3.org/2000/svg"
   xmlns="http://www.w3.org/2000/svg"
   xmlns:sodipodi="http://sodipodi.sourceforge.net/DTD/sodipodi-0.dtd"
   xmlns:inkscape="http://www.inkscape.org/namespaces/inkscape"
   id="grav-logo"
   width="16"
   height="16"
   viewBox="0 0 67.668 76.830002"
   version="1.1"
   xml:space="preserve"
   style="clip-rule:evenodd;fill-rule:evenodd;stroke-linejoin:round;stroke-miterlimit:1.41421"
   sodipodi:docname="grav-logo.svg"
   inkscape:version="1.0.1 (3bc2e813f5, 2020-09-07)"><metadata
     id="metadata25"><rdf:RDF><cc:Work
         rdf:about=""><dc:format>image/svg+xml</dc:format><dc:type
           rdf:resource="http://purl.org/dc/dcmitype/StillImage" /><dc:title></dc:title></cc:Work></rdf:RDF></metadata><defs
     id="defs23" /><sodipodi:namedview
     pagecolor="#ffffff"
     bordercolor="#666666"
     borderopacity="1"
     objecttolerance="10"
     gridtolerance="10"
     guidetolerance="10"
     inkscape:pageopacity="0"
     inkscape:pageshadow="2"
     inkscape:window-width="1920"
     inkscape:window-height="1027"
     id="namedview21"
     showgrid="false"
     fit-margin-top="0"
     fit-margin-left="0"
     fit-margin-right="0"
     fit-margin-bottom="0"
     inkscape:zoom="3.2324881"
     inkscape:cx="-15.945669"
     inkscape:cy="32.882733"
     inkscape:window-x="-8"
     inkscape:window-y="-8"
     inkscape:window-maximized="1"
     inkscape:current-layer="grav-logo"
     inkscape:pagecheckerboard="true" /><path
     d="m 65.469,40.65 -7.98,-10e-4 c -1.213,10e-4 -2.197,0.987 -2.197,2.204 V 58.18 l -0.158,0.132 c -4.696,3.962 -10.634,6.14 -16.719,6.14 -14.356,0 -26.034,-11.68 -26.034,-26.037 0,-14.358 11.678,-26.035 26.034,-26.035 5.582,0 10.919,1.767 15.437,5.113 0.877,0.649 2.093,0.56 2.866,-0.211 l 5.69,-5.69 C 62.852,11.15 63.083,10.537 63.047,9.911 63.013,9.284 62.711,8.705 62.219,8.314 55.459,2.951 47.005,0 38.414,0 17.234,0 0,17.233 0,38.415 0,59.598 17.234,76.83 38.414,76.83 c 10.937,0 21.397,-4.705 28.698,-12.914 0.358,-0.403 0.556,-0.921 0.556,-1.46 V 42.853 c 0,-1.217 -0.985,-2.203 -2.2,-2.203"
     style="fill:#000000;fill-rule:nonzero"
     id="path2" /><path
     d="m 332.431,3.531 c -0.408,-0.616 -1.1,-0.989 -1.838,-0.989 h -8.684 c -0.879,0 -1.673,0.522 -2.022,1.329 L 295.404,60.71 270.484,3.858 c -0.352,-0.799 -1.142,-1.316 -2.012,-1.316 h -8.713 c -0.744,0 -1.44,0.373 -1.843,0.995 -0.408,0.623 -0.476,1.408 -0.174,2.09 l 30.186,68.858 c 0.352,0.799 1.143,1.317 2.017,1.317 h 10.992 c 0.879,0 1.673,-0.527 2.021,-1.329 L 332.613,5.612 c 0.289,-0.68 0.222,-1.461 -0.182,-2.081"
     style="fill:#000000;fill-rule:nonzero"
     id="path4" /><path
     d="M 218.32,3.858 C 217.967,3.06 217.178,2.542 216.303,2.542 h -10.988 c -0.879,0 -1.673,0.522 -2.021,1.329 l -29.655,68.861 c -0.294,0.675 -0.226,1.46 0.182,2.077 0.407,0.619 1.096,0.993 1.838,0.993 h 8.684 c 0.879,0 1.673,-0.526 2.022,-1.329 l 24.478,-56.842 24.92,56.854 c 0.353,0.798 1.143,1.317 2.013,1.317 h 8.717 c 0.744,0 1.44,-0.374 1.843,-0.993 0.408,-0.624 0.471,-1.41 0.174,-2.094 z"
     style="fill:#000000;fill-rule:nonzero"
     id="path6" /><path
     d="m 138.833,50.611 0.476,-0.229 c 8.675,-4.191 14.279,-13.087 14.279,-22.667 0,-13.881 -11.295,-25.174 -25.176,-25.174 H 96.549 c -1.214,0 -2.199,0.988 -2.199,2.202 v 68.855 c 0,1.219 0.985,2.204 2.199,2.204 h 7.979 c 1.214,0 2.2,-0.985 2.2,-2.204 V 14.919 h 21.684 c 7.059,0 12.799,5.739 12.799,12.796 0,5.885 -3.996,10.989 -9.728,12.408 -1.032,0.261 -2.064,0.393 -3.071,0.393 h -7.977 c -0.829,0 -1.585,0.467 -1.959,1.205 -0.378,0.74 -0.305,1.625 0.187,2.296 l 22.62,30.884 c 0.412,0.566 1.07,0.901 1.771,0.901 h 9.915 c 0.827,0 1.587,-0.467 1.96,-1.207 0.378,-0.742 0.302,-1.629 -0.186,-2.296 z"
     style="fill:#000000;fill-rule:nonzero"
     id="path8" /><path
     d="m -63.172,50.055 c -7.255,-4.794 -11.4,-8.845 -15.011,-16.109 -2.47,4.977 -8.236,12.376 -17.962,18.198 -4.856,15.106 -27.954,44.015 -35.43,39.916 -2.213,-1.212 -2.633,-2.808 -2.133,-4.456 0.536,-4.129 9.078,-13.62 9.078,-13.62 0,0 0.18,1.992 2.913,6.187 -3.609,-11.205 5.965,-25.031 8.5,-29.738 3.985,-1.269 4.274,-6.387 4.274,-6.387 0.255,-7.909 -3.278,-13.635 -6.701,-17.059 2.459,3.002 3.255,7.539 3.372,11.694 v 0.023 c 0.012,0.469 0.012,0.93 0.011,1.39 -0.117,3.439 -1.157,8.19 -3.383,8.19 l 0.006,0.03 c -2.289,-0.098 -5.115,0.391 -7.639,1.18 l -5.582,1.334 c 0,0 2.977,-0.136 4.584,1.252 -1.79,2.915 -5.769,6.533 -10.206,8.588 -6.457,2.995 -8.312,-2.964 -5.034,-6.838 0.805,-0.946 1.618,-1.745 2.387,-2.399 -0.495,-0.513 -0.807,-1.198 -0.889,-2.068 -0.001,-0.005 -0.004,-0.009 -0.005,-0.013 -0.45,-1.977 -0.202,-4.543 2.596,-8.623 0.551,-0.863 1.214,-1.748 2.007,-2.647 0.025,-0.031 0.046,-0.059 0.072,-0.089 0.034,-0.042 0.072,-0.08 0.108,-0.121 0.02,-0.023 0.039,-0.045 0.059,-0.068 0.2,-0.228 0.413,-0.45 0.639,-0.663 3.334,-3.414 8.599,-6.966 16.897,-10.152 9.675,-14.223 13.219,-16.89 13.219,-16.89 1.071,-1.096 2.943,-2.458 3.632,-2.805 -5.053,-8.781 -6.074,-21.158 -4.75,-24.493 -0.107,0.18 -0.206,0.365 -0.287,0.556 0.49,-1.143 0.819,-1.509 1.328,-2.111 1.381,-1.632 6.058,-2.488 7.737,0.971 0.895,1.844 1.063,4.232 1.034,6.023 -3.704,-0.193 -7.063,4.036 -7.063,4.036 0,0 3.067,-1.448 6.879,-1.473 0,0 1.015,0.883 2.283,2.542 -1.712,3.213 -4.524,10.021 -2.488,17.168 0.338,1.408 0.849,2.619 1.483,3.648 0.024,0.045 0.044,0.089 0.069,0.135 0.051,0.066 0.096,0.122 0.144,0.183 3.368,5.072 9.542,5.665 9.542,5.665 -2.906,-1.45 -5.274,-3.76 -6.816,-6.56 -0.8,-1.498 -1.291,-2.762 -1.592,-3.761 -1.636,-6.313 0.771,-9.999 2.149,-12.471 3.17,-4.917 8.944,-7.893 15.151,-7.185 8.712,0.995 14.968,8.862 13.973,17.571 -0.608,5.321 -3.781,9.723 -8.142,12.117 1.049,2.839 -0.073,6.28 -0.073,6.28 2.642,3.323 2.758,5.238 2.667,7.017 -3.357,-0.565 -6.618,1.701 -6.618,1.701 0,0 6.476,-1.546 10.238,1.81 2.446,2.631 4.078,5.009 5.051,6.766 1.393,2.505 7.859,2.683 7.123,7.188 -0.737,4.499 -5.669,4.542 -13.401,-0.56 m -37.62,-80.969 c -38.424,0 -69.571,31.148 -69.571,69.567 0,38.422 31.147,69.573 69.571,69.573 38.42,0 69.568,-31.151 69.568,-69.573 0,-38.42 -31.148,-69.567 -69.568,-69.567"
     style="fill:#fafafa;fill-opacity:1;fill-rule:nonzero"
     id="path10" /><path
     d="m -96.567,20.779 c 0.813,-0.814 0.813,-2.134 0,-2.947 -0.815,-0.814 -2.133,-0.814 -2.947,0 -0.815,0.813 -0.815,2.133 0,2.947 0.814,0.813 2.132,0.813 2.947,0"
     style="fill:#fafafa;fill-opacity:1;fill-rule:nonzero"
     id="path12" /><path
     d="m -103.918,22.235 c -0.814,0.813 -0.814,2.133 0,2.947 0.813,0.814 2.133,0.814 2.947,0 0.813,-0.814 0.813,-2.134 0,-2.947 -0.814,-0.813 -2.134,-0.813 -2.947,0"
     style="fill:#fafafa;fill-opacity:1;fill-rule:nonzero"
     id="path14" /><path
     d="m -91.132,23.319 c -1.274,-1.274 -3.339,-1.272 -4.611,0 l -2.713,2.712 c -1.274,1.275 -1.274,3.339 0,4.612 l 2.978,2.978 c 1.274,1.275 3.338,1.274 4.611,0 l 2.712,-2.712 c 1.274,-1.274 1.274,-3.339 0,-4.612 z"
     style="fill:#fafafa;fill-opacity:1;fill-rule:nonzero"
     id="path16" /><path
     d="m -74.604,10.531 c -2.151,-2.578 1.869,-7.257 4.391,-4.463 4.645,5.148 -2.237,7.041 -4.391,4.463 m 9.245,2.687 c 3.442,-6.553 -1.427,-10.381 -4.773,-13.523 -5.36,-5.039 -10.706,-7.217 -16.811,-0.241 -6.102,6.977 -2.226,15.068 3.356,19.061 5.584,3.994 14.782,1.255 18.228,-5.297"
     style="fill:#fafafa;fill-opacity:1;fill-rule:nonzero"
     id="path18" /></svg>
