<?xml version="1.0" encoding="UTF-8" standalone="no"?>
<svg
   xmlns:dc="http://purl.org/dc/elements/1.1/"
   xmlns:cc="http://creativecommons.org/ns#"
   xmlns:rdf="http://www.w3.org/1999/02/22-rdf-syntax-ns#"
   xmlns:svg="http://www.w3.org/2000/svg"
   xmlns="http://www.w3.org/2000/svg"
   xmlns:sodipodi="http://sodipodi.sourceforge.net/DTD/sodipodi-0.dtd"
   xmlns:inkscape="http://www.inkscape.org/namespaces/inkscape"
   id="grav-logo"
   width="13"
   height="13"
   viewBox="0 0 139.13901 139.14"
   version="1.1"
   xml:space="preserve"
   style="clip-rule:evenodd;fill-rule:evenodd;stroke-linejoin:round;stroke-miterlimit:1.41421"
   sodipodi:docname="gravToolWindowIcon.svg"
   inkscape:version="1.0.1 (3bc2e813f5, 2020-09-07)"
   inkscape:export-filename="D:\Projekte\Intellij-Grav-Plugin\GravSupportPlugin\src\main\resources\icons\gravToolWindowIcon.png"
   inkscape:export-xdpi="101"
   inkscape:export-ydpi="101"><metadata
     id="metadata25"><rdf:RDF><cc:Work
         rdf:about=""><dc:format>image/svg+xml</dc:format><dc:type
           rdf:resource="http://purl.org/dc/dcmitype/StillImage" /><dc:title /></cc:Work></rdf:RDF></metadata><defs
     id="defs23" /><sodipodi:namedview
     pagecolor="#ffffff"
     bordercolor="#666666"
     borderopacity="1"
     objecttolerance="10"
     gridtolerance="10"
     guidetolerance="10"
     inkscape:pageopacity="0"
     inkscape:pageshadow="2"
     inkscape:window-width="1920"
     inkscape:window-height="1027"
     id="namedview21"
     showgrid="false"
     fit-margin-top="0"
     fit-margin-left="0"
     fit-margin-right="0"
     fit-margin-bottom="0"
     inkscape:zoom="25.859905"
     inkscape:cx="8.5917673"
     inkscape:cy="12.672425"
     inkscape:window-x="-8"
     inkscape:window-y="1072"
     inkscape:window-maximized="1"
     inkscape:current-layer="grav-logo"
     inkscape:document-rotation="0" /><path
     d="m 104.28136,80.087404 c -6.693899,-4.423233 -10.518325,-8.16093 -13.850051,-14.863133 -2.278971,4.59208 -7.59903,11.418842 -16.572823,16.79057 -4.480438,13.937705 -25.792043,40.610889 -32.689851,36.828909 -2.041847,-1.11827 -2.429364,-2.59083 -1.968034,-4.11138 0.494546,-3.80966 8.375909,-12.56663 8.375909,-12.56663 0,0 0.166079,1.83794 2.68771,5.7085 -3.329881,-10.338409 5.503668,-23.095109 7.842611,-27.438071 3.676801,-1.170855 3.94345,-5.89303 3.94345,-5.89303 0.235278,-7.29732 -3.02448,-12.580472 -6.182746,-15.739661 2.268821,2.769826 3.003259,6.955936 3.11121,10.789589 v 0.02122 c 0.01107,0.432728 0.01107,0.858074 0.01015,1.282498 -0.107951,3.173028 -1.067517,7.556587 -3.121359,7.556587 l 0.0055,0.02768 c -2.111969,-0.09042 -4.719407,0.36076 -7.048201,1.088739 l -5.15029,1.230828 c 0,0 2.74676,-0.125482 4.229475,1.155171 -1.651562,2.689554 -5.322827,6.027739 -9.41667,7.923806 -5.957617,2.763367 -7.669152,-2.734765 -4.644672,-6.309151 0.742742,-0.872836 1.492865,-1.610042 2.20239,-2.213462 -0.456717,-0.473324 -0.744587,-1.105347 -0.820245,-1.908061 -9.22e-4,-0.0046 -0.0037,-0.0083 -0.0046,-0.01199 -0.415197,-1.824099 -0.186377,-4.191645 2.395226,-7.956098 0.508386,-0.796256 1.120109,-1.61281 1.851779,-2.442282 0.02307,-0.0286 0.04244,-0.05444 0.06643,-0.08212 0.03137,-0.03875 0.06643,-0.07381 0.09965,-0.111642 0.01845,-0.02122 0.03598,-0.04152 0.05444,-0.06274 0.184532,-0.210367 0.381058,-0.415198 0.58958,-0.611724 3.076149,-3.149962 7.933955,-6.427251 15.590189,-9.366847 8.926737,-13.122996 12.196645,-15.58373 12.196645,-15.58373 0.988169,-1.011236 2.715389,-2.267899 3.351102,-2.588062 -4.662202,-8.101879 -5.604238,-19.521645 -4.382636,-22.598716 -0.09873,0.166078 -0.190068,0.33677 -0.264803,0.512999 0.452103,-1.054601 0.755658,-1.392295 1.225292,-1.947736 1.274194,-1.505782 5.589476,-2.295579 7.138622,0.895903 0.825781,1.701385 0.980788,3.904698 0.954031,5.557182 -3.417533,-0.178073 -6.516749,3.723857 -6.516749,3.723857 0,0 2.829799,-1.336012 6.346979,-1.359079 0,0 0.936501,0.814709 2.106434,2.345403 -1.579595,2.964507 -4.174115,9.245978 -2.295579,15.84023 0.311859,1.299106 0.783339,2.416447 1.368305,3.365864 0.02214,0.04152 0.0406,0.08212 0.06366,0.12456 0.04705,0.06089 0.08857,0.112564 0.132863,0.168846 3.107519,4.679733 8.804023,5.22687 8.804023,5.22687 -2.68125,-1.337857 -4.866109,-3.469202 -6.288851,-6.052651 -0.738129,-1.382145 -1.191155,-2.548387 -1.468876,-3.470125 -1.509472,-5.824753 0.711372,-9.225679 1.982797,-11.506495 2.924833,-4.53672 8.252273,-7.282557 13.979225,-6.629313 8.038219,0.918046 13.810379,8.176614 12.892329,16.212062 -0.56097,4.909475 -3.48857,8.971025 -7.512297,11.179874 0.967877,2.619432 -0.06735,5.794306 -0.06735,5.794306 2.437667,3.065999 2.544697,4.832894 2.460737,6.474306 -3.097372,-0.521303 -6.106167,1.569445 -6.106167,1.569445 0,0 5.975147,-1.426432 9.446197,1.670015 2.25682,2.427519 3.7626,4.621605 4.66035,6.242719 1.28527,2.311264 7.25119,2.475497 6.57211,6.632082 -0.68,4.151048 -5.23056,4.190722 -12.36457,-0.51669 M 69.570884,5.3805302 c -35.452295,0 -64.1903925,28.7390198 -64.1903925,64.1867018 0,35.450448 28.7380975,64.192238 64.1903925,64.192238 35.448606,0 64.187626,-28.74179 64.187626,-64.192238 0,-35.448605 -28.73902,-64.1867018 -64.187626,-64.1867018"
     style="fill:#000000;fill-rule:nonzero;stroke-width:0.999998"
     id="path10" /><path
     d="m 73.469124,53.075604 c 0.750122,-0.751045 0.750122,-1.968957 0,-2.71908 -0.751968,-0.751045 -1.968035,-0.751045 -2.71908,0 -0.751968,0.750123 -0.751968,1.968035 0,2.71908 0.751045,0.750123 1.967112,0.750123 2.71908,0"
     style="fill:#000000;fill-rule:nonzero;stroke-width:0.999998"
     id="path12" /><path
     d="m 66.686648,54.418997 c -0.751045,0.750123 -0.751045,1.968034 0,2.71908 0.750123,0.751045 1.968035,0.751045 2.71908,0 0.750123,-0.751046 0.750123,-1.968957 0,-2.71908 -0.751045,-0.750123 -1.968957,-0.750123 -2.71908,0"
     style="fill:#000000;fill-rule:nonzero;stroke-width:0.999998"
     id="path14" /><path
     d="m 78.483782,55.419161 c -1.175469,-1.175469 -3.080763,-1.173624 -4.254386,0 l -2.503177,2.502254 c -1.17547,1.176392 -1.17547,3.080763 0,4.255309 l 2.747682,2.747682 c 1.175469,1.176392 3.079839,1.175469 4.254386,0 l 2.502254,-2.502254 c 1.175469,-1.175469 1.175469,-3.080763 0,-4.255309 z"
     style="fill:#000000;fill-rule:nonzero;stroke-width:0.999998"
     id="path16" /><path
     d="m 93.73351,43.620182 c -1.984642,-2.378618 1.724452,-6.695745 4.051401,-4.117832 4.285759,4.749854 -2.063991,6.49645 -4.051401,4.117832 m 8.52999,2.479188 c 3.1758,-6.046192 -1.31663,-9.578135 -4.403854,-12.477134 -4.945459,-4.649284 -9.878,-6.658838 -15.510841,-0.222361 -5.630072,6.4374 -2.053841,13.902644 3.096448,17.586826 5.152135,3.685105 13.638763,1.157939 16.818247,-4.887331"
     style="fill:#000000;fill-rule:nonzero;stroke-width:0.999998"
     id="path18" /></svg>
