<?xml version="1.0" encoding="UTF-8" standalone="no"?>
<svg
   xmlns:dc="http://purl.org/dc/elements/1.1/"
   xmlns:cc="http://creativecommons.org/ns#"
   xmlns:rdf="http://www.w3.org/1999/02/22-rdf-syntax-ns#"
   xmlns:svg="http://www.w3.org/2000/svg"
   xmlns="http://www.w3.org/2000/svg"
   xmlns:sodipodi="http://sodipodi.sourceforge.net/DTD/sodipodi-0.dtd"
   xmlns:inkscape="http://www.inkscape.org/namespaces/inkscape"
   id="grav-logo"
   width="13"
   height="13"
   viewBox="0 0 139.13901 139.14"
   version="1.1"
   xml:space="preserve"
   style="clip-rule:evenodd;fill-rule:evenodd;stroke-linejoin:round;stroke-miterlimit:1.41421"
   sodipodi:docname="gravToolWindowIcon_dark.svg"
   inkscape:version="1.0.1 (3bc2e813f5, 2020-09-07)"
   inkscape:export-filename="D:\Projekte\Intellij-Grav-Plugin\GravSupportPlugin\src\main\resources\icons\gravToolWindowIcon_dark.png"
   inkscape:export-xdpi="96"
   inkscape:export-ydpi="96"><metadata
     id="metadata25"><rdf:RDF><cc:Work
         rdf:about=""><dc:format>image/svg+xml</dc:format><dc:type
           rdf:resource="http://purl.org/dc/dcmitype/StillImage" /><dc:title /></cc:Work></rdf:RDF></metadata><defs
     id="defs23" /><sodipodi:namedview
     pagecolor="#ffffff"
     bordercolor="#666666"
     borderopacity="1"
     objecttolerance="10"
     gridtolerance="10"
     guidetolerance="10"
     inkscape:pageopacity="0"
     inkscape:pageshadow="2"
     inkscape:window-width="1920"
     inkscape:window-height="1027"
     id="namedview21"
     showgrid="false"
     fit-margin-top="0"
     fit-margin-left="0"
     fit-margin-right="0"
     fit-margin-bottom="0"
     inkscape:zoom="12.929952"
     inkscape:cx="3.625967"
     inkscape:cy="22.580469"
     inkscape:window-x="-8"
     inkscape:window-y="1072"
     inkscape:window-maximized="1"
     inkscape:current-layer="grav-logo"
     inkscape:pagecheckerboard="true"
     inkscape:document-rotation="0" /><path
     d="M 102.26696,79.477057 C 95.96152,75.310513 92.359033,71.789723 89.220654,65.476462 87.073937,69.802054 82.062612,76.232646 73.609587,81.292641 69.389158,94.421512 49.31431,119.5468 42.816796,115.98429 c -1.923354,-1.05337 -2.288383,-2.44048 -1.853825,-3.87278 0.465846,-3.58859 7.889838,-11.83737 7.889838,-11.83737 0,0 0.156441,1.73128 2.531736,5.37722 -3.136641,-9.738445 5.184279,-21.754847 7.387488,-25.845777 3.463429,-1.102909 3.714603,-5.551046 3.714603,-5.551046 0.221625,-6.873841 -2.848963,-11.850401 -5.823948,-14.826255 2.137157,2.609087 2.828974,6.552268 2.93066,10.163446 v 0.01999 c 0.01043,0.407616 0.01043,0.808279 0.0096,1.208072 -0.101687,2.988891 -1.005568,7.118063 -2.940221,7.118063 l 0.0052,0.02607 c -1.989407,-0.08517 -4.44553,0.339825 -6.63918,1.025557 l -4.851407,1.159402 c 0,0 2.587359,-0.1182 3.984029,1.088133 -1.555718,2.533474 -5.013932,5.677937 -8.870201,7.463971 -5.611884,2.603003 -7.224095,-2.576061 -4.375131,-5.943017 0.699638,-0.822184 1.40623,-1.516608 2.07458,-2.08501 -0.430212,-0.445857 -0.701377,-1.041202 -0.772644,-1.797333 -8.69e-4,-0.0043 -0.0035,-0.0078 -0.0043,-0.0113 -0.391102,-1.718243 -0.175561,-3.948396 2.256226,-7.49439 0.478883,-0.750048 1.055107,-1.519216 1.744317,-2.300551 0.02173,-0.02694 0.03998,-0.05128 0.06258,-0.07735 0.02955,-0.0365 0.06258,-0.06953 0.09387,-0.105164 0.01738,-0.01999 0.0339,-0.03911 0.05128,-0.0591 0.173824,-0.198159 0.358945,-0.391103 0.555366,-0.576225 2.897634,-2.967163 7.473531,-6.054264 14.685458,-8.823268 8.4087,-12.361442 11.488849,-14.679375 11.488849,-14.679375 0.930823,-0.952551 2.557809,-2.136288 3.15663,-2.437871 -4.391645,-7.63171 -5.279012,-18.388763 -4.128302,-21.287266 -0.093,0.156441 -0.179038,0.317228 -0.249437,0.483229 0.425867,-0.9934 0.711806,-1.311497 1.154187,-1.834705 1.200249,-1.418398 5.265106,-2.162361 6.724353,0.843912 0.777859,1.602651 0.92387,3.6781 0.898666,5.234688 -3.219207,-0.16774 -6.138569,3.507753 -6.138569,3.507753 0,0 2.66558,-1.25848 5.978651,-1.280208 0,0 0.882153,0.76743 1.984193,2.209294 -1.487927,2.79247 -3.931882,8.709414 -2.162361,14.920988 0.293761,1.223716 0.737879,2.276216 1.288899,3.170537 0.02086,0.03911 0.03824,0.07735 0.05997,0.11733 0.04433,0.05736 0.08343,0.106033 0.125153,0.159049 2.927184,4.408158 8.293108,4.923544 8.293108,4.923544 -2.525652,-1.260219 -4.58372,-3.267878 -5.923897,-5.701403 -0.695293,-1.301937 -1.122029,-2.4005 -1.383633,-3.268747 -1.421875,-5.486731 0.670088,-8.690294 1.867731,-10.838749 2.755098,-4.273445 7.773376,-6.859935 13.167981,-6.244601 7.571738,0.864771 13.008928,7.702109 12.144158,15.271243 -0.52842,4.624567 -3.28613,8.450417 -7.076341,10.531082 0.911703,2.467421 -0.06345,5.45805 -0.06345,5.45805 2.296211,2.888074 2.397021,4.552432 2.317931,6.098589 -2.917622,-0.49105 -5.75181,1.478367 -5.75181,1.478367 0,0 5.6284,-1.343653 8.89801,1.573101 2.12586,2.286645 3.54426,4.353403 4.38991,5.880441 1.21068,2.177136 6.83039,2.331839 6.19072,6.247208 -0.64054,3.910154 -4.92702,3.947526 -11.64703,-0.486705 M 69.570804,9.1055782 c -33.394926,0 -60.4652913,27.0712348 -60.4652913,60.4618148 0,33.393187 27.0703653,60.467027 60.4652913,60.467027 33.391446,0 60.462686,-27.07384 60.462686,-60.467027 0,-33.391449 -27.07124,-60.4618148 -60.462686,-60.4618148"
     style="fill:#fafafa;fill-opacity:1;fill-rule:nonzero;stroke-width:0.999996"
     id="path10" /><path
     d="m 73.24282,54.032808 c 0.706591,-0.707461 0.706591,-1.854695 0,-2.561286 -0.70833,-0.707461 -1.853825,-0.707461 -2.561286,0 -0.70833,0.706591 -0.70833,1.853825 0,2.561286 0.707461,0.706591 1.852956,0.706591 2.561286,0"
     style="fill:#fafafa;fill-opacity:1;fill-rule:nonzero;stroke-width:0.999996"
     id="path12" /><path
     d="m 66.853946,55.298241 c -0.707461,0.706592 -0.707461,1.853825 0,2.561286 0.706591,0.70746 1.853825,0.70746 2.561286,0 0.706591,-0.707461 0.706591,-1.854694 0,-2.561286 -0.707461,-0.706592 -1.854695,-0.706592 -2.561286,0"
     style="fill:#fafafa;fill-opacity:1;fill-rule:nonzero;stroke-width:0.999996"
     id="path14" /><path
     d="m 77.966467,56.240363 c -1.107254,-1.107254 -2.901979,-1.105516 -4.007495,0 l -2.357913,2.357043 c -1.107254,1.108124 -1.107254,2.90198 0,4.008365 l 2.588229,2.588228 c 1.107254,1.108124 2.90111,1.107254 4.007495,0 l 2.357043,-2.357043 c 1.107254,-1.107254 1.107254,-2.90198 0,-4.008365 z"
     style="fill:#fafafa;fill-opacity:1;fill-rule:nonzero;stroke-width:0.999996"
     id="path16" /><path
     d="m 92.331221,45.126104 c -1.869469,-2.240582 1.624379,-6.307177 3.81629,-3.878866 4.037049,4.47421 -1.944213,6.119448 -3.81629,3.878866 m 8.034979,2.335315 c 2.9915,-5.695319 -1.240227,-9.022296 -4.14829,-11.75306 -4.658464,-4.379477 -9.30476,-6.272412 -14.610715,-0.209457 -5.303347,6.063825 -1.934653,13.095845 2.916755,16.566226 4.853145,3.471251 12.847277,1.090741 15.84225,-4.603709"
     style="fill:#fafafa;fill-opacity:1;fill-rule:nonzero;stroke-width:0.999996"
     id="path18" /></svg>
